<?xml version="1.0" standalone="no"?>
<!DOCTYPE svg PUBLIC "-//W3C//DTD SVG 20010904//EN" "http://www.w3.org/TR/2001/REC-SVG-20010904/DTD/svg10.dtd">
<svg xmlns="http://www.w3.org/2000/svg" version="1.0" width="512.000000pt" height="512.000000pt" viewBox="0 0 512.000000 512.000000" preserveAspectRatio="xMidYMid meet">
<metadata>
Created by potrace 1.16, written by Peter Selinger 2001-2019
<meta name="Producer" content="Online-Convert"/></metadata>
<g transform="translate(0.000000,512.000000) scale(0.100000,-0.100000)" fill="#000000" stroke="none">
<path d="M2390 4777 c-36 -12 -86 -34 -111 -49 -26 -15 -427 -383 -891 -816 -677 -634 -849 -799 -872 -841 -95 -176 -10 -423 170 -490 43 -17 78 -21 164 -21 l110 0 0 -315 0 -315 120 -60 c173 -87 249 -110 357 -110 113 0 163 15 339 98 l141 67 5 275 c4 241 8 283 25 337 50 153 173 272 328 320 51 15 94 18 295 17 215 -1 240 -2 294 -22 151 -56 265 -174 311 -322 14 -44 19 -108 22 -328 l5 -273 127 -63 c168 -85 239 -106 353 -106 109 0 185 23 358 110 l120 60 0 315 0 315 110 0 c121 0 179 15 243 64 118 90 164 285 101 427 -27 59 -67 98 -878 856 -499 467 -870 807 -900 824 -86 49 -166 69 -280 69 -78 0 -116 -6 -166 -23z"/>
<path d="M232 1740 c-99 -61 -98 -223 3 -281 19 -11 70 -21 140 -28 144 -13 214 -36 425 -136 323 -154 384 -170 645 -170 258 1 325 19 655 178 182 88 265 115 378 125 187 17 317 -13 552 -129 175 -86 262 -121 372 -151 73 -20 106 -23 278 -23 264 0 311 13 640 170 211 100 281 123 425 136 122 11 157 26 192 79 17 24 23 47 23 89 0 66 -23 111 -72 142 -30 19 -44 20 -163 16 -194 -7 -275 -32 -600 -186 -233 -110 -346 -136 -527 -119 -111 9 -208 43 -418 143 -283 135 -395 165 -620 165 -225 0 -337 -30 -620 -165 -96 -46 -210 -95 -253 -110 -145 -48 -342 -49 -488 -1 -41 13 -159 65 -264 114 -267 126 -394 162 -574 162 -78 0 -102 -4 -129 -20z"/>
<path d="M232 940 c-99 -61 -98 -223 3 -281 19 -11 70 -21 140 -28 144 -13 214 -36 425 -136 323 -154 384 -170 645 -170 258 1 325 19 655 178 182 88 265 115 378 125 187 17 317 -13 552 -129 175 -86 262 -121 372 -151 73 -20 106 -23 278 -23 264 0 311 13 640 170 211 100 281 123 425 136 122 11 157 26 192 79 17 24 23 47 23 89 0 66 -23 111 -72 142 -30 19 -44 20 -163 16 -194 -7 -275 -32 -600 -186 -233 -110 -346 -136 -527 -119 -111 9 -208 43 -418 143 -283 135 -395 165 -620 165 -225 0 -337 -30 -620 -165 -96 -46 -210 -95 -253 -110 -145 -48 -342 -49 -488 -1 -41 13 -159 65 -264 114 -267 126 -394 162 -574 162 -78 0 -102 -4 -129 -20z"/>
</g>
</svg>
