<?xml version="1.0" encoding="UTF-8"?>
<svg version="1.1" xmlns="http://www.w3.org/2000/svg" width="512" height="512">
<path d="M0 0 C1.6318927 -0.01407143 1.6318927 -0.01407143 3.29675293 -0.02842712 C5.05154968 -0.01157616 5.05154968 -0.01157616 6.84179688 0.00561523 C8.04743286 0.00416 9.25306885 0.00270477 10.49523926 0.00120544 C13.04388852 0.0028652 15.59254772 0.0144349 18.14111328 0.03515625 C22.04567981 0.06409878 25.94888811 0.05576793 29.85351562 0.04272461 C32.32878265 0.04896224 34.80404538 0.05735336 37.27929688 0.06811523 C38.44916138 0.0651796 39.61902588 0.06224396 40.82434082 0.05921936 C41.91226929 0.07190353 43.00019775 0.08458771 44.12109375 0.09765625 C45.07721558 0.10305923 46.0333374 0.10846222 47.01843262 0.11402893 C50.16133074 0.59333033 51.33694367 1.22233786 53.56054688 3.50170898 C54.06111813 6.6423645 54.06111813 6.6423645 54.06175232 10.59985352 C54.06728672 11.32717241 54.07282111 12.05449131 54.07852322 12.80385017 C54.09216681 15.24775199 54.07714135 17.69063903 54.06225586 20.13452148 C54.06603771 21.88377314 54.07153664 23.63302181 54.07862854 25.38226318 C54.09261799 30.13846039 54.08138899 34.89429726 54.06491733 39.65047455 C54.05109218 44.62188518 54.057524 49.59327436 54.06105042 54.56469727 C54.06375455 62.91420313 54.05025948 71.26356541 54.02709961 79.61303711 C54.0004886 89.27372123 53.99874202 98.93416522 54.01048797 108.59487343 C54.02125772 117.87844549 54.01508501 127.16193047 54.00093269 136.44549561 C53.99516591 140.40079805 53.995261 144.35603693 53.99999809 148.31134033 C54.00476155 152.9669346 53.99469252 157.62226508 53.97304344 162.27780914 C53.96746676 163.98907837 53.96701832 165.70037291 53.97199631 167.41164398 C53.97792776 169.74257938 53.96548613 172.07270239 53.94822693 174.40356445 C53.94458209 176.36252151 53.94458209 176.36252151 53.94086361 178.36105347 C53.56054688 181.50170898 53.56054688 181.50170898 52.22381687 183.38284302 C49.05289841 185.51588982 46.22784976 185.63481942 42.52587891 185.6628418 C41.50116486 185.67244934 40.47645081 185.68205688 39.42068481 185.69195557 C38.31441742 185.69620544 37.20815002 185.70045532 36.06835938 185.70483398 C34.93026825 185.71053406 33.79217712 185.71623413 32.61959839 185.72210693 C30.21043834 185.73155778 27.80126535 185.73809125 25.39208984 185.74194336 C21.70712751 185.75165213 18.02272211 185.7826768 14.33789062 185.81420898 C11.99805019 185.82073875 9.65820576 185.82598933 7.31835938 185.82983398 C6.21614044 185.84218079 5.11392151 185.85452759 3.978302 185.86724854 C2.94728363 185.86424744 1.91626526 185.86124634 0.85400391 185.8581543 C-0.04961884 185.86179993 -0.95324158 185.86544556 -1.88424683 185.86920166 C-5.03047704 185.41670725 -6.90198843 184.39511769 -9.43945312 182.50170898 C-11.3397455 176.80083186 -10.43945312 170.51096111 -10.43945312 164.50170898 C-24.62945312 164.83170898 -38.81945312 165.16170898 -53.43945312 165.50170898 C-52.77945312 170.45170898 -52.11945313 175.40170898 -51.43945312 180.50170898 C-51.23950444 184.88759631 -51.10400618 189.18363741 -51.12695312 193.56420898 C-51.13259277 194.7239624 -51.13823242 195.88371582 -51.14404297 197.07861328 C-51.78729545 243.56156605 -70.77259892 284.18397613 -102.43945312 317.50170898 C-103.30763672 318.44916992 -103.30763672 318.44916992 -104.19335938 319.41577148 C-112.5989682 328.30591415 -122.99282516 335.46668542 -133.30664062 341.94311523 C-134.01046875 342.45745117 -134.71429688 342.97178711 -135.43945312 343.50170898 C-135.43945312 346.10085568 -134.59376527 346.88899687 -133.05273438 348.96655273 C-132.53243652 349.67497314 -132.01213867 350.38339355 -131.47607422 351.11328125 C-130.90711426 351.8808374 -130.3381543 352.64839355 -129.75195312 353.43920898 C-128.56154276 355.07084933 -127.37279316 356.70370239 -126.18554688 358.33764648 C-125.56921387 359.18552734 -124.95288086 360.0334082 -124.31787109 360.90698242 C-121.28114677 365.10171937 -118.27974409 369.31869233 -115.31445312 373.56420898 C-114.77087158 374.32403076 -114.22729004 375.08385254 -113.66723633 375.86669922 C-108.63323073 383.12674988 -105.5014597 390.0854348 -106.80664062 399.01342773 C-108.49918923 405.66869602 -111.74714663 410.64418802 -117.40039062 414.52905273 C-122.99760617 417.19898889 -128.50874623 417.79396771 -134.62362671 417.7624054 C-135.4195503 417.76623094 -136.21547389 417.77005649 -137.03551638 417.77399796 C-139.6876456 417.78427065 -142.339556 417.78034676 -144.99169922 417.77636719 C-146.89928893 417.78071685 -148.8068769 417.78590084 -150.71446228 417.79185486 C-155.88599447 417.80522904 -161.0574535 417.80582526 -166.22899961 417.80329156 C-170.55049432 417.80222074 -174.87197429 417.80710809 -179.19346583 417.81189698 C-189.39103273 417.82298679 -199.5885628 417.82343258 -209.78613281 417.81738281 C-220.29654493 417.8113432 -230.80682318 417.82365497 -241.31721246 417.84495288 C-250.35012456 417.86258198 -259.3829941 417.86856815 -268.41592276 417.86531514 C-273.80686371 417.86350417 -279.19770916 417.8661199 -284.58863449 417.88002968 C-289.65957887 417.89262459 -294.73031492 417.89064811 -299.80125618 417.87761879 C-301.6583736 417.87525706 -303.51550576 417.87797319 -305.37260628 417.88624191 C-327.78663434 417.97881526 -327.78663434 417.97881526 -335.93164062 410.21264648 C-341.19989024 404.23468449 -341.8929782 398.69567652 -341.97070312 390.84545898 C-340.75131487 383.17048587 -335.98323195 377.16921147 -331.43945312 371.06420898 C-330.28884131 369.49583809 -329.13912532 367.92680966 -327.99023438 366.35717773 C-327.40580566 365.56102051 -326.82137695 364.76486328 -326.21923828 363.94458008 C-323.31112919 359.95301086 -320.46794786 355.9161947 -317.62695312 351.87670898 C-317.10552734 351.13622314 -316.58410156 350.3957373 -316.046875 349.6328125 C-314.84350644 347.92307396 -313.64133365 346.21249388 -312.43945312 344.50170898 C-313.08269531 344.04022461 -313.7259375 343.57874023 -314.38867188 343.10327148 C-356.61497972 312.62322616 -386.93281865 273.8587332 -395.60205078 221.31738281 C-396.51293843 215.38103023 -397.20084817 209.5029851 -397.43945312 203.50170898 C-397.46668457 202.85105469 -397.49391602 202.20040039 -397.52197266 201.5300293 C-399.10051102 157.90677406 -384.87128673 112.93040904 -355.12695312 80.43920898 C-353.73045808 78.95362846 -352.32192682 77.48132274 -350.90332031 76.0168457 C-349.39291733 74.45354335 -347.90501973 72.87053765 -346.41601562 71.28686523 C-317.77090791 41.26428786 -276.61228279 23.13123448 -235.25564575 20.93458557 C-234.48665266 20.89327721 -233.71765957 20.85196885 -232.92536366 20.80940872 C-223.14281188 20.33183839 -213.35953944 20.36972316 -203.56787109 20.38818359 C-201.43716432 20.3884664 -199.30645745 20.38830591 -197.17575073 20.38774109 C-191.44971781 20.38745677 -185.72370628 20.39329397 -179.99767828 20.40031505 C-173.99195308 20.40660986 -167.98622726 20.4071572 -161.98049927 20.40834045 C-150.63381812 20.41143583 -139.28714673 20.41962481 -127.94046986 20.42968994 C-115.01164193 20.44090708 -102.08281351 20.44637559 -89.15398192 20.45138538 C-62.58246694 20.46180911 -36.01096058 20.47937348 -9.43945312 20.50170898 C-9.48585938 19.39311523 -9.53226562 18.28452148 -9.58007812 17.14233398 C-9.61760414 15.6788193 -9.65400342 14.21527543 -9.68945312 12.75170898 C-9.72296875 12.02209961 -9.75648438 11.29249023 -9.79101562 10.54077148 C-9.85628125 6.95116191 -9.76301598 4.9346322 -7.58271027 2.01740932 C-4.87717349 0.10406774 -3.29853591 0.00057327 0 0 Z M5.56054688 15.50170898 C5.56054688 66.32170898 5.56054688 117.14170898 5.56054688 169.50170898 C16.78054688 169.50170898 28.00054687 169.50170898 39.56054688 169.50170898 C39.56054688 118.68170898 39.56054688 67.86170898 39.56054688 15.50170898 C28.34054687 15.50170898 17.12054688 15.50170898 5.56054688 15.50170898 Z M-267.31445312 41.25170898 C-268.17119629 41.50774902 -269.02793945 41.76378906 -269.91064453 42.02758789 C-278.05789607 44.54411932 -285.794466 47.7407405 -293.43945312 51.50170898 C-294.07044922 51.80834473 -294.70144531 52.11498047 -295.3515625 52.4309082 C-309.9500713 59.60739227 -322.34608498 68.81286188 -334.00683594 80.1159668 C-335.29213922 81.35921517 -336.59518389 82.58406002 -337.90039062 83.80639648 C-365.00844663 109.77306066 -381.55422735 149.40994232 -382.66210938 186.74389648 C-383.51273567 232.93158557 -367.83273568 272.61509713 -336.43945312 306.50170898 C-314.97928969 328.27424743 -287.07084436 342.6560417 -257.43945312 349.50170898 C-256.76221191 349.66541992 -256.0849707 349.82913086 -255.38720703 349.99780273 C-216.45884326 359.09769555 -174.5839679 349.60807915 -140.68164062 329.56420898 C-129.55502271 322.48607132 -119.63033518 313.93445635 -110.43945312 304.50170898 C-109.88257813 303.98995117 -109.32570313 303.47819336 -108.75195312 302.95092773 C-82.24754127 277.996169 -67.04488313 238.80504767 -65.31347656 202.88842773 C-64.97561141 191.25560215 -65.43110603 179.98916343 -67.37207031 168.50439453 C-68.23050211 163.41752345 -68.75974414 158.66640163 -68.43945312 153.50170898 C-54.51505408 139.57730993 -29.12849733 150.84713081 -9.43945312 150.50170898 C-9.43945312 112.55170898 -9.43945312 74.60170898 -9.43945312 35.50170898 C-48.89256916 35.41422891 -48.89256916 35.41422891 -88.34570312 35.35522461 C-93.68424506 35.34933486 -99.02278675 35.34329129 -104.36132812 35.33691406 C-105.36476497 35.33572719 -105.36476497 35.33572719 -106.38847327 35.33451635 C-116.47547676 35.32232795 -126.5624372 35.30130125 -136.64941406 35.27539062 C-148.37864021 35.24535707 -160.10782779 35.22610304 -171.83709133 35.2194435 C-178.0395459 35.21555476 -184.24189022 35.20650594 -190.44430923 35.18451881 C-196.29983306 35.16393248 -202.15520277 35.15791924 -208.01075935 35.16238594 C-210.14300313 35.16157053 -212.27525286 35.15573839 -214.40746498 35.14409256 C-232.15102011 35.05205477 -250.24709362 35.9584596 -267.31445312 41.25170898 Z M-298.43945312 350.50170898 C-306.209247 361.1667891 -313.90463148 371.8743225 -321.28955078 382.81079102 C-322.41309205 384.46294533 -323.56466795 386.09592415 -324.71679688 387.72827148 C-326.92474808 391.28302286 -327.04884892 393.38828735 -326.43945312 397.50170898 C-324.96421328 399.83304218 -324.96421328 399.83304218 -322.43945312 401.50170898 C-319.67717038 401.89675294 -317.31241518 402.04681133 -314.55116272 402.01637268 C-313.75089659 402.02331821 -312.95063045 402.03026374 -312.12611383 402.03741974 C-309.44129665 402.05573385 -306.7573587 402.04541343 -304.07250977 402.03515625 C-302.14901568 402.04221252 -300.22552714 402.0509563 -298.30204773 402.06126404 C-293.07475218 402.08380087 -287.84775878 402.08080821 -282.62043309 402.07194257 C-278.2589316 402.06683898 -273.89748722 402.07412014 -269.53599161 402.08141464 C-259.24798354 402.09842739 -248.96012374 402.09483403 -238.67211914 402.078125 C-228.05309519 402.06120153 -217.43448224 402.07703833 -206.81550318 402.10934788 C-197.70286229 402.13602537 -188.59034949 402.14332477 -179.47767347 402.1348328 C-174.03310396 402.12989831 -168.58878181 402.1321475 -163.14424324 402.15262032 C-158.02478775 402.17094845 -152.90592442 402.1650537 -147.78650093 402.14042091 C-145.90674639 402.13540394 -144.02694696 402.13892571 -142.14722824 402.15156937 C-139.58237682 402.16745768 -137.01948545 402.15259051 -134.45472717 402.12989807 C-133.70939399 402.1417338 -132.96406081 402.15356953 -132.19614178 402.16576391 C-128.28131225 402.09530931 -126.57779066 401.61127575 -123.47005367 399.14987087 C-121.22338894 396.647971 -121.22338894 396.647971 -120.93457031 393.50292969 C-121.51145068 390.07372741 -122.49081502 388.29385791 -124.51757812 385.48217773 C-125.17886719 384.54962158 -125.84015625 383.61706543 -126.52148438 382.65625 C-127.59462891 381.1875647 -127.59462891 381.1875647 -128.68945312 379.68920898 C-129.77033203 378.17508423 -129.77033203 378.17508423 -130.87304688 376.63037109 C-132.34336732 374.57208511 -133.81928189 372.51778369 -135.30078125 370.4675293 C-137.84695603 366.93660108 -140.35415847 363.37947454 -142.85644531 359.81738281 C-145.04230904 356.70613415 -147.24082206 353.60394411 -149.43945312 350.50170898 C-150.40882813 350.87682617 -151.37820313 351.25194336 -152.37695312 351.63842773 C-171.93676507 359.14075379 -192.29703876 365.85940779 -213.43945312 366.50170898 C-214.17647461 366.52749023 -214.91349609 366.55327148 -215.67285156 366.57983398 C-244.60689865 367.46977007 -271.81244289 361.73757598 -298.43945312 350.50170898 Z " fill="#000000" transform="translate(427.439453125,47.498291015625)"/>
<path d="M0 0 C6.37162288 5.33113901 14.59713904 13.54418712 15.87109375 22.1640625 C15.90284623 27.65724238 15.90284623 27.65724238 14.35717773 29.84960938 C12.01525578 31.52629623 10.53471264 31.51183431 7.66796875 31.53515625 C6.70060791 31.55481445 5.73324707 31.57447266 4.73657227 31.59472656 C3.71233154 31.60600586 2.68809082 31.61728516 1.6328125 31.62890625 C-11.77458365 32.0063749 -23.22415812 33.0871389 -33.1796875 42.81640625 C-36.22877049 46.75437445 -37.7838377 51.47639228 -39.4296875 56.12890625 C-35.84643452 57.20411339 -35.84643452 57.20411339 -32.38671875 56.125 C-31.67902344 55.61066406 -30.97132813 55.09632813 -30.2421875 54.56640625 C-25.44458178 51.47397365 -20.62797434 49.59266911 -15.2421875 47.81640625 C-14.48204346 47.56238037 -13.72189941 47.30835449 -12.9387207 47.04663086 C2.04844124 42.23825654 17.50156745 42.89582022 31.8828125 49.31640625 C39.92532752 53.66685178 43.80397147 59.63753285 46.75 68.11865234 C48.07303325 72.97371187 48.20870537 77.61997694 48.1328125 82.62890625 C48.11637695 84.18931641 48.11637695 84.18931641 48.09960938 85.78125 C47.50663733 107.31272363 39.00328346 125.61808951 25.5703125 142.12890625 C24.3946875 143.70671875 24.3946875 143.70671875 23.1953125 145.31640625 C10.9514491 158.43483132 -5.70214184 169.08364433 -23.95703125 170.296875 C-29.18927383 170.33927567 -33.51297015 169.97267526 -38.4296875 168.12890625 C-40.4296875 166.12890625 -40.4296875 166.12890625 -41.0546875 162.81640625 C-40.96250207 157.7369892 -38.29166054 154.20652234 -35.57250977 150.06933594 C-29.27018023 140.45006449 -26.14320494 130.65070065 -27.4296875 119.12890625 C-29.08355461 114.38441488 -31.29536698 109.20264099 -35.4296875 106.12890625 C-38.05539454 105.87820712 -38.05539454 105.87820712 -40.4296875 106.12890625 C-40.38328125 107.23105469 -40.336875 108.33320313 -40.2890625 109.46875 C-39.72675136 128.70278441 -43.52610265 146.80299787 -56.6171875 161.62890625 C-63.69216724 169.09951028 -71.10190049 173.36824057 -81.4921875 173.75390625 C-98.61950814 172.90788053 -113.16209833 162.40931242 -124.4296875 150.12890625 C-140.68245779 131.14024361 -150.20558277 106.2100118 -148.4296875 81.12890625 C-146.75330042 69.70010676 -143.75647796 59.19098919 -136.4296875 50.12890625 C-133.54107041 48.6845977 -131.63321049 48.75202119 -128.4296875 49.12890625 C-124.56716414 51.92923569 -122.82131576 55.12202741 -120.6171875 59.31640625 C-115.03712571 69.87866606 -108.37388194 77.41034715 -97.4921875 82.50390625 C-92.06319849 83.61186319 -85.72293611 84.06432314 -80.4296875 82.12890625 C-79.13308316 79.63856239 -79.13308316 79.63856239 -78.4296875 77.12890625 C-79.13738281 77.03609375 -79.84507812 76.94328125 -80.57421875 76.84765625 C-93.63397777 73.56038449 -105.71266135 60.26683226 -112.4296875 49.12890625 C-118.55349725 38.54253301 -121.4962253 27.40976463 -118.77734375 15.19921875 C-114.80723868 2.89700475 -106.52220647 -2.92274641 -95.4296875 -8.87109375 C-64.74356747 -24.03734514 -27.07649917 -20.85151624 0 0 Z M-100.4296875 13.12890625 C-103.95083059 17.5499941 -105.11202631 22.17622289 -104.8046875 27.78515625 C-102.61916252 41.44468737 -93.22610449 51.23203077 -82.48046875 59.03515625 C-81.47371094 59.72609375 -80.46695313 60.41703125 -79.4296875 61.12890625 C-78.12064453 62.0725 -78.12064453 62.0725 -76.78515625 63.03515625 C-74.51914265 64.40561764 -74.51914265 64.40561764 -72.375 63.50390625 C-70.33725176 62.06357015 -68.31254162 60.61071741 -66.3046875 59.12890625 C-61.5580007 55.89073389 -57.07858211 54.81290602 -51.4296875 54.12890625 C-51.10097656 52.98615234 -51.10097656 52.98615234 -50.765625 51.8203125 C-47.17167298 40.1180541 -41.7395638 30.76326034 -30.7890625 24.65625 C-22.17589377 20.53010911 -13.86185113 19.02720755 -4.4296875 18.12890625 C-4.08363993 15.11729919 -4.08363993 15.11729919 -5.9765625 13.515625 C-17.82416779 4.37784432 -32.27703149 -2.23308718 -47.4296875 -2.87109375 C-48.51507813 -2.92265625 -49.60046875 -2.97421875 -50.71875 -3.02734375 C-68.82508629 -3.47719061 -86.76064746 0.60089341 -100.4296875 13.12890625 Z M-24.4296875 70.12890625 C-24.2853125 70.68578125 -24.1409375 71.24265625 -23.9921875 71.81640625 C-22.2644874 78.91917331 -21.59971451 84.62253469 -23.8671875 91.62890625 C-24.52369149 93.87462136 -24.52369149 93.87462136 -24.4296875 96.12890625 C-22.96953664 98.47668682 -21.27883674 100.21700307 -19.31640625 102.16015625 C-12.0561842 109.73604013 -11.03360822 120.26884837 -11.171875 130.2734375 C-11.7504636 138.92596696 -14.58228402 146.99346774 -17.4296875 155.12890625 C-7.12165039 154.31511385 1.0791181 147.70533434 8.5703125 141.12890625 C9.24835938 140.54625 9.92640625 139.96359375 10.625 139.36328125 C25.23400235 125.86902206 33.53957278 106.68709852 35.5703125 87.12890625 C35.69127639 79.51624527 35.53111553 72.27020157 30.02734375 66.515625 C14.25170489 51.92402968 -8.26495701 61.18626297 -24.4296875 70.12890625 Z M-61.4296875 72.12890625 C-64.34772043 76.50595565 -65.07017059 79.91354396 -64.4296875 85.12890625 C-62.95837025 89.16048177 -61.19923711 91.58672357 -57.6796875 94.06640625 C-53.74809416 95.35173484 -50.51889312 95.86349409 -46.4296875 95.12890625 C-41.09816073 92.41284544 -38.53495928 89.35970067 -36.6171875 83.75390625 C-36.30339901 79.36086738 -37.08631489 75.90965599 -39.7734375 72.34765625 C-43.09488664 69.02620711 -45.77348836 67.71030486 -50.4921875 67.50390625 C-55.11693851 67.81316012 -57.96641321 68.91904228 -61.4296875 72.12890625 Z M-130.4296875 73.12890625 C-135.41538179 91.51365396 -130.92889861 110.52131516 -121.87109375 126.95703125 C-117.78876348 133.70748962 -112.94608232 139.50642691 -107.4296875 145.12890625 C-106.81609375 145.76699219 -106.2025 146.40507812 -105.5703125 147.0625 C-99.23494759 153.14065992 -89.59657659 159.27976705 -80.6171875 159.94140625 C-74.4981918 159.36135275 -69.73584674 155.61955823 -65.671875 151.23046875 C-64.12125764 149.25908085 -62.75313975 147.25864634 -61.4296875 145.12890625 C-61.06230469 144.54753906 -60.69492188 143.96617187 -60.31640625 143.3671875 C-54.43623302 132.90093322 -52.71253404 120.94201744 -53.4296875 109.12890625 C-54.17734375 108.87496094 -54.925 108.62101562 -55.6953125 108.359375 C-56.68015625 108.01519531 -57.665 107.67101562 -58.6796875 107.31640625 C-59.65421875 106.97996094 -60.62875 106.64351562 -61.6328125 106.296875 C-64.29506338 105.18512498 -66.16463839 103.87780479 -68.4296875 102.12890625 C-69.0896875 102.12890625 -69.7496875 102.12890625 -70.4296875 102.12890625 C-70.6978125 101.48953125 -70.9659375 100.85015625 -71.2421875 100.19140625 C-72.31636502 97.79758939 -72.31636502 97.79758939 -75.4296875 97.12890625 C-77.10067511 97.43985525 -78.76674849 97.77744822 -80.4296875 98.12890625 C-94.67078143 99.14256638 -106.4161953 96.6643193 -117.4296875 87.12890625 C-119.85991366 84.6451003 -122.16613305 82.1037348 -124.421875 79.4609375 C-126.33391993 77.24013823 -128.3326566 75.17421666 -130.4296875 73.12890625 Z " fill="#000000" transform="translate(253.4296875,160.87109375)"/>
<path d="M0 0 C2.09765625 2.6953125 2.09765625 2.6953125 2.16015625 6.3203125 C0.97906535 10.072013 0.37421847 10.74712516 -2.90234375 12.6953125 C-5.13452148 13.14013672 -5.13452148 13.14013672 -7.5859375 13.25 C-8.50294434 13.30438232 -9.41995117 13.35876465 -10.36474609 13.41479492 C-11.83741943 13.49177612 -11.83741943 13.49177612 -13.33984375 13.5703125 C-48.58962403 16.077817 -80.32574037 31.15857428 -103.90234375 57.6953125 C-117.36529588 73.57667231 -126.97216868 92.49202893 -131.90234375 112.6953125 C-132.07733398 113.41187012 -132.25232422 114.12842773 -132.43261719 114.86669922 C-136.76549469 133.64393172 -136.52527224 154.01078525 -131.90234375 172.6953125 C-131.66088623 173.71383301 -131.66088623 173.71383301 -131.41455078 174.75292969 C-126.91369206 193.26654835 -118.39945343 210.22917153 -106.40234375 225.0078125 C-104.23813078 227.83839077 -103.89012946 228.77809827 -103.33984375 232.5078125 C-103.90234375 235.6953125 -103.90234375 235.6953125 -104.96484375 237.6328125 C-108.11750992 239.36169395 -110.38007776 239.18114229 -113.90234375 238.6953125 C-136.53527867 218.31494456 -148.64085856 183.42179359 -150.77734375 153.64453125 C-152.55608558 111.67734114 -139.93836284 73.62555291 -111.57958984 42.23095703 C-93.66633839 22.81387706 -27.30588256 -21.6830023 0 0 Z " fill="#000000" transform="translate(208.90234375,99.3046875)"/>
</svg>
