<?xml version="1.0" standalone="no"?>
<!DOCTYPE svg PUBLIC "-//W3C//DTD SVG 20010904//EN"
 "http://www.w3.org/TR/2001/REC-SVG-20010904/DTD/svg10.dtd">
<svg version="1.0" xmlns="http://www.w3.org/2000/svg"
 width="512.000000pt" height="512.000000pt" viewBox="0 0 512.000000 512.000000"
 preserveAspectRatio="xMidYMid meet">

<g transform="translate(0.000000,512.000000) scale(0.100000,-0.100000)"
fill="##FFFFFF" stroke="none">
<path d="M1130 4480 c-122 -22 -202 -71 -365 -220 -108 -99 -167 -130 -248
-130 -76 0 -122 24 -213 110 -40 38 -88 73 -108 80 -102 33 -201 -53 -181
-157 9 -47 113 -157 213 -224 143 -95 300 -118 455 -65 92 31 160 76 277 181
164 148 229 177 312 136 24 -11 93 -67 153 -123 61 -56 136 -118 168 -139 175
-114 395 -109 574 11 32 22 102 79 157 128 197 179 250 177 461 -18 161 -150
267 -201 418 -202 90 -1 164 16 242 55 70 34 106 61 234 175 196 173 241 171
452 -26 154 -143 219 -180 359 -201 128 -20 262 12 377 90 75 51 221 198 233
235 16 47 -2 105 -44 142 -75 66 -133 52 -255 -60 -103 -96 -164 -128 -241
-128 -78 0 -129 27 -229 122 -122 116 -176 156 -261 197 -70 34 -81 36 -170
36 -79 0 -105 -4 -155 -25 -87 -37 -157 -87 -275 -195 -123 -113 -172 -140
-250 -139 -82 1 -132 29 -253 143 -183 173 -297 229 -441 218 -141 -10 -220
-53 -406 -218 -130 -115 -171 -138 -251 -139 -78 0 -135 32 -254 141 -112 103
-192 159 -270 188 -63 24 -154 33 -215 21z"/>
<path d="M1135 3460 c-118 -25 -197 -72 -360 -216 -129 -113 -167 -134 -250
-134 -81 0 -125 22 -217 108 -51 47 -90 74 -115 81 -102 28 -196 -62 -173
-166 7 -30 29 -57 102 -128 145 -139 251 -182 429 -173 155 8 237 48 399 193
161 145 234 178 313 140 19 -9 84 -62 144 -117 176 -163 272 -214 423 -225
167 -12 297 47 490 220 38 35 97 80 132 100 107 65 147 50 326 -117 115 -108
177 -149 274 -183 54 -19 94 -26 153 -26 155 -1 274 54 445 204 240 211 258
210 516 -24 140 -127 251 -177 394 -177 151 0 277 56 416 182 91 82 134 142
134 185 0 56 -64 127 -124 138 -49 10 -90 -13 -186 -100 -106 -97 -160 -125
-237 -125 -82 1 -126 24 -240 130 -181 170 -268 218 -408 227 -145 10 -267
-51 -460 -227 -118 -108 -157 -129 -239 -130 -83 0 -121 21 -261 151 -188 174
-277 217 -429 206 -118 -8 -227 -65 -376 -198 -139 -123 -182 -149 -260 -156
-85 -8 -139 21 -279 152 -116 107 -196 164 -271 190 -53 19 -154 26 -205 15z"/>
<path d="M1093 2445 c-104 -29 -165 -70 -366 -244 -83 -72 -125 -93 -198 -99
-76 -6 -125 18 -222 106 -43 39 -93 76 -113 82 -96 32 -193 -46 -181 -147 6
-54 50 -109 153 -193 133 -107 244 -146 384 -137 142 9 243 60 392 195 169
153 236 184 321 148 18 -7 90 -66 161 -130 72 -65 153 -131 180 -147 185 -107
420 -89 591 45 22 17 78 66 125 109 47 44 108 92 135 108 96 56 150 36 313
-114 188 -173 296 -223 470 -215 158 7 246 50 408 198 222 205 262 204 481 -2
177 -168 260 -210 415 -209 207 1 375 91 490 262 75 111 81 165 25 225 -28 31
-42 37 -83 41 -64 7 -85 -5 -194 -102 -112 -101 -148 -119 -230 -119 -81 0
-113 16 -205 103 -122 115 -198 173 -275 210 -71 34 -81 36 -175 36 -156 0
-243 -44 -430 -214 -121 -110 -177 -141 -255 -141 -82 0 -136 32 -274 160
-150 139 -243 190 -360 198 -144 9 -261 -46 -460 -217 -136 -116 -179 -141
-251 -141 -72 0 -121 27 -220 119 -190 176 -290 233 -420 238 -49 2 -100 -3
-132 -12z"/>
<path d="M1150 1389 c-100 -16 -222 -86 -353 -203 -138 -123 -189 -151 -267
-151 -74 0 -125 27 -227 119 -98 89 -129 99 -195 67 -77 -38 -107 -113 -73
-184 21 -45 128 -146 208 -198 102 -66 158 -83 277 -83 173 -1 270 44 445 203
229 210 260 209 510 -19 50 -45 113 -95 140 -111 154 -90 340 -93 505 -9 52
27 76 46 255 202 96 84 133 102 196 96 55 -6 85 -26 251 -176 155 -140 281
-192 432 -178 146 14 257 71 405 211 161 152 225 179 315 134 26 -13 102 -74
169 -137 97 -90 139 -122 206 -155 l85 -42 115 0 c218 1 290 31 467 192 89 80
110 115 101 169 -16 99 -115 151 -200 107 -18 -9 -67 -49 -111 -88 -188 -174
-286 -167 -501 35 -92 87 -152 130 -233 168 -50 24 -69 27 -157 26 -80 0 -111
-5 -155 -23 -78 -32 -171 -97 -280 -195 -115 -104 -173 -136 -247 -136 -78 0
-128 29 -250 142 -127 118 -173 151 -255 185 -120 48 -242 41 -373 -22 -68
-33 -92 -52 -259 -197 -92 -79 -133 -100 -206 -106 -80 -5 -113 13 -252 140
-68 61 -147 127 -177 146 -99 63 -206 88 -311 71z"/>
</g>
</svg>
