<?xml version="1.0" encoding="utf-8"?>
<!-- Generator: Adobe Illustrator 25.4.1, SVG Export Plug-In . SVG Version: 6.00 Build 0)  -->
<svg version="1.1" id="Layer_1" xmlns="http://www.w3.org/2000/svg" xmlns:xlink="http://www.w3.org/1999/xlink" x="0px" y="0px"
	 viewBox="0 0 500 500" style="enable-background:new 0 0 500 500;" xml:space="preserve">
<style type="text/css">
	.st0{fill:#F2F1F0;stroke:#F2F1F0;stroke-width:2;stroke-miterlimit:10;}
</style>
<g id="Pump_Station_Data_Icon" transform="translate(0.000000,512.000000) scale(0.100000,-0.100000)">
	<path class="st0" d="M422.6,4847.1c-66.4-22.9-104-51-147.9-109c-31.3-41.3-33.8-208.3-2.5-255.8
		c26.3-43.1,101.5-100.2,147.9-113.4l37.6-10.5v-880.7c0-518.6,5-921.1,12.5-980c57.6-449.1,378.4-843.7,899.7-1105.7
		c104-52.7,352.1-147.7,438.6-167.9l40.1-9.7v-158.2V897.4h-33.8c-87.7-0.9-199.2-57.1-246.8-124.8c-28.8-40.4-32.6-56.2-32.6-138
		c0-109,26.3-161.7,106.5-210.9c91.5-56.2,50.1-53.6,967.3-53.6c820.7,0,835.8,0,889.6,18.5c67.7,22.9,145.3,84.4,164.1,129.2
		c8.8,19.3,15,73.8,15,121.3c0,72.9-5,94-30.1,131c-43.9,66.8-161.6,126.6-248.1,127.4h-35.1v159.1v158.2l41.3,9.7
		c89,22,334.6,116,446.1,172.3c845.8,422.8,1136.5,1215.5,689.2,1873.8c-250.6,368.3-715.5,653.9-1275.6,782.2
		c-221.8,50.1-368.4,65.9-646.5,65.9c-253.1,0-342.1-7-535-40.4c-52.6-8.8-99-16.7-102.7-16.7s-7.5,66.8-7.5,148.5
		c0,144.1,1.3,149.4,26.3,154.7c41.3,9.7,122.8,65.9,152.9,104.6c18.8,26.4,27.6,57.1,31.3,116c8.8,138-42.6,216.2-175.4,261.9
		l-65.2,22.9h-728h-728L422.6,4847.1z M1923.7,4696c22.6-12.3,30.1-28.1,35.1-65.9c6.3-60.6-2.5-87.9-37.6-111.6
		c-26.3-17.6-41.3-17.6-700.4-17.6H546.7l-32.6,20.2c-55.1,32.5-58.9,136.2-5,174c22.6,15.8,47.6,16.7,705.4,16.7
		C1856.1,4711.8,1897.4,4710.9,1923.7,4696z M1747.1,4169.5v-174l-112.8-37.8c-206.7-70.3-497.4-221.5-522.5-272.5
		c-27.6-55.4,23.8-107.2,104-107.2c31.3,0,62.7,13.2,139.1,58c268.1,156.4,547.6,252.2,887.1,304.1c185.4,28.1,546.3,28.1,734.3-0.9
		c367.1-55.4,677.9-167.9,939.8-341c690.4-456.2,805.7-1176.9,276.9-1730.6c-131.6-138.9-365.9-297.1-571.4-388.5
		c-190.5-83.5-447.3-152.9-676.6-182.8c-186.7-24.6-530-22.9-707.9,4.4C1473.9,1415,895,1814.9,732.1,2341.4
		c-42.6,136.2-48.9,270.7-48.9,1147v854.3h532.5h532.5L1747.1,4169.5z M2243.2,1137.3c85.2-11.4,172.9-15.8,363.4-15.8
		c236.8,0,332,7,505,36.9l27.6,4.4v-132.7V897.4h-532.5h-532.5v132.7v132.7l28.8-4.4C2117.9,1155.8,2181.9,1146.1,2243.2,1137.3z
		 M3421.1,717.2c27.6-18.5,31.3-29,31.3-84.4c0-53.6-5-66.8-27.6-84.4l-26.3-20.2h-793.1h-793.1l-25.1,22.9
		c-21.3,18.5-26.3,36-26.3,84.4c0,52.7,3.8,63.3,31.3,81.7l30.1,22h784.4H3391L3421.1,717.2z"/>
</g>
</svg>
