<?xml version="1.0" encoding="utf-8"?>
<!-- Generator: Adobe Illustrator 25.4.1, SVG Export Plug-In . SVG Version: 6.00 Build 0)  -->
<svg version="1.1" id="Layer_1" xmlns="http://www.w3.org/2000/svg" xmlns:xlink="http://www.w3.org/1999/xlink" x="0px" y="0px"
	 viewBox="0 0 500 500" style="enable-background:new 0 0 500 500;" xml:space="preserve">
<style type="text/css">
	.st0{fill:#F2F1F0;}
</style>
<g id="Rain_Level_Data_Icon" transform="translate(0.000000,512.000000) scale(0.100000,-0.100000)">
	<path class="st0" d="M1967.9,4866.6c-7.1-1.8-43.3-7.9-79.5-13.2c-259.7-42.2-515.8-204-676.5-427.3
		c-103.3-144.2-189-376.3-189-516.1c0-20.2-3.5-41.3-7.1-45.7c-3.5-5.3-38-18.5-76.8-29c-318.8-92.3-576.7-361.4-668.6-698.2
		c-17.7-64.2-20.3-94.1-20.3-240s2.6-175.9,20.3-240c106-387.8,426.6-677.1,809.9-731.6c51.2-7,483.1-8.8,1558.9-7l1488.2,2.6
		l75.1,25.5c214.6,71.2,372.7,204.9,468.1,396.6c58.3,117.8,79.5,207.5,79.5,342.9c0,131.9-21.2,224.2-75.1,334.1
		c-101.6,207.5-282.6,357-499.9,411.5l-47.7,12.3l-6.2,47.5c-24.7,181.1-42.4,246.2-91,342c-107.8,212.8-292.3,364-529.9,436.1
		c-72.4,22-92.7,23.7-220.8,24.6c-106.9,0-154.6-3.5-194.3-14.1c-28.3-8.8-53-14.1-53-13.2c-0.9,0.9-14.1,25.5-30.9,54.5
		c-53.9,97.6-99.8,157.4-184.6,241.8c-163.4,162.7-358.6,261.1-583.8,295.4C2159.5,4869.2,2006.7,4873.6,1967.9,4866.6z
		 M2263.7,4565c256.1-70.3,439.8-233.9,539.6-483.6c35.3-89.7,61.8-118.7,118.4-133.7c36.2-9.7,37.1-9.7,185.5,47.5
		c40.6,14.9,67.1,18.5,167.8,17.6c106,0,125.4-2.6,178.4-22.9c89.2-33.4,153.7-74.7,219-138.9c128.1-128.4,181.9-286.6,159-467.8
		c-10.6-81.8-9.7-87,8.8-124.9c27.4-57.2,62.7-75.6,161.6-84.4c99.8-9.7,135.1-19.3,211.1-58.9c341.8-177.6,340.9-679.7-0.9-859.1
		c-119.2-62.4-6.2-58-1622.5-58c-1432.6,0-1459.1,0-1528,17.6c-318.8,80.9-536.1,357-535.2,680.6c0.9,122.2,21.2,208.4,77.7,320.1
		c98,193.4,299.4,340.3,511.4,371.1c87.4,12.3,144,38.7,166,77.4c14.1,23.7,17.7,50.1,19.4,149.5c3.5,141.6,21.2,222.5,76,335.9
		c106,222.5,304.7,374.6,554.7,427.3C2011.1,4593.1,2182.5,4587,2263.7,4565z"/>
	<path class="st0" d="M692.5,1696.8c-52.1-15.8-78.6-56.3-229.6-359.6C333,1077.7,313.6,1033.8,313.6,998.6
		c1.8-106.4,115.7-169.7,210.2-116.9c33.6,18.5,44.2,36.9,192.5,329.7C855,1485.7,872.7,1526.2,872.7,1564
		c0,54.5-26.5,95-79.5,122.2C751.7,1706.4,734,1709.1,692.5,1696.8z"/>
	<path class="st0" d="M1967,1696.8c-59.2-17.6-67.1-29.9-229.6-353.5c-90.1-179.4-158.1-326.2-158.1-339.4
		c0.9-34.3,29.1-92.3,57.4-114.3c47.7-37.8,124.5-36.1,173.1,4.4c39.7,33.4,334.7,623.4,334.7,669.1c0,49.2-32.7,99.4-79.5,123.1
		C2024.4,1706.4,2005,1709.1,1967,1696.8z"/>
	<path class="st0" d="M3222,1692.4c-16.8-7.9-38-21.1-46.8-29c-9.7-7.9-86.6-153-170.5-320.9c-110.4-220.7-153.7-314.8-153.7-336.8
		c0-119.6,139.5-187.3,229.6-112.5c32.7,28.1,323.3,598.8,332.1,653.3C3428.7,1644.9,3313.9,1732.8,3222,1692.4z"/>
	<path class="st0" d="M4498.3,1695c-14.1-5.3-36.2-17.6-47.7-28.1c-11.5-9.7-90.1-156.5-174.9-326.2
		c-150.1-297.2-154.6-308.6-151-351.7c7.1-80,69.8-132.8,148.4-125.7c78.6,7.9,83,14.1,251.7,350.8
		c136.9,270.8,154.6,312.1,154.6,349.1c0,46.6-22.1,88.8-61.8,116.9C4589.3,1700.3,4532.7,1708.2,4498.3,1695z"/>
	<path class="st0" d="M1093.5,1193.8c-39.7-20.2-41.5-23.7-197.8-332.4c-136-267.3-158.1-318.3-159-352.6
		c0-120.5,143.1-183.8,232.3-102c11.5,10.6,89.2,156.5,174,324.5c168.7,335.9,174,352.6,134.2,411.5
		C1231.3,1209.6,1161.5,1229,1093.5,1193.8z"/>
	<path class="st0" d="M2368.8,1196.4c-20.3-8.8-44.2-28.1-53.9-41.3c-32.7-45.7-302.1-590.9-308.2-623.4
		c-7.9-43.1,16.8-104.6,53-131.9c53.9-40.4,123.7-39.6,174,1.8c36.2,30.8,334.7,622.5,334.7,664.7c0,49.2-34.4,104.6-79.5,127.5
		C2441.3,1217.5,2416.5,1217.5,2368.8,1196.4z"/>
	<path class="st0" d="M3650.4,1202.6c-14.1-5.3-36.2-17.6-47.7-28.1c-11.5-9.7-89.2-155.6-174-323.6
		C3299.8,595,3275,538.7,3275,507.1c0-102.9,118.4-169.7,207.6-118.7c33.6,19.3,45,39.6,197,341.2
		c151,298.1,161.6,322.7,156.3,355.2c-7.9,51-35.3,89.7-78.6,109.9C3716.6,1214.9,3691,1216.7,3650.4,1202.6z"/>
</g>
</svg>
